<?xml version="1.0" encoding="utf-8"?>
<!-- Generator: Adobe Illustrator 25.0.0, SVG Export Plug-In . SVG Version: 6.00 Build 0)  -->
<svg version="1.1" xmlns="http://www.w3.org/2000/svg" xmlns:xlink="http://www.w3.org/1999/xlink" x="0px" y="0px"
	 viewBox="0 0 570.5 120" style="enable-background:new 0 0 570.5 120;" xml:space="preserve">
<style type="text/css">
	.st0{display:none;fill:#EF7E19;}
	.st1{fill:#FF8000;}
	.st2{display:none;}
	.st3{display:inline;opacity:0.5;fill:#446CB2;}
</style>
<g id="Layer_1">
	<path class="st0" d="M208.3,38.9c0,0,7.7-4,11.4-9.3c3.7-5.3-25.6,2.3-25.6,2.3L208.3,38.9z"/>
	<path id="House_1_" class="st1" d="M87.1,59.1c-2-3.3-4.1-6.5-6.5-9.5l-0.1-0.1l0,0c-0.1-0.1-0.4-0.5-0.5-0.7
		c-1.1-1.5-2.3-13.3-2.5-14.2c-0.2-1-0.5-2.1-2-2.3c-1.2-0.1-3-0.3-5-0.4c-0.9,0-1.4,0.4-1.6,0.9c-0.2,0.3-0.2,0.7-0.2,1
		c0,1.5,0,2.3,0,2.4c0,0,0,0,0,0.1c0,0.1-0.1,0.2-0.2,0.3c-0.2,0.1-0.4,0.1-0.6,0c-0.9-0.7-5.8-4.4-8.5-6.1
		c-0.1-0.1-0.3-0.1-0.4-0.2c-1-0.4-2.1-0.5-3.1,0.1c-0.1,0-0.1,0.1-0.2,0.1c-0.9,0.6-16.1,9.2-27.7,28.5c0,0-0.7,1-0.2,1.9
		c0.5,1.1,5.6,1.4,6.4,1.5c0.9,0.1,0.9,0.8,0.9,0.8c0.1,7.9,0.2,11.7,1.5,25.1c0,0,0.2,1.4,1.6,1.5c0.6,0,2.6-0.1,8.2-0.2
		c0.2,0,0.4-0.1,0.4-0.3c0,0,0-0.1,0-0.1c-0.5-5.5-0.7-10.2-0.7-10.5c0-0.2-0.2-0.5-0.4-0.6c-2-1.2-3.3-3.2-3.3-5.6
		C42.3,61.8,43,53.5,43,53.5s0.1-1.2,1.1-1.1c1,0.1,0.9,1.2,0.9,1.2c-0.4,4.7-0.5,13.1-0.5,13.1s0,1.6,1.5,1.6
		c1.5,0,1.5-1.6,1.5-1.6c0-6.6,0.5-13.2,0.5-13.2s0-1.1,1.1-1.1c0.6,0,0.8,0.4,0.9,0.7c0,0.2,0.1,0.4,0,0.5c-0.4,5.7-0.5,13-0.5,13
		s0,1.6,1.5,1.6c1.5,0,1.5-1.7,1.5-1.7c0-5.5,0.5-13.1,0.5-13.1c0-0.6,0.3-1.1,1.1-1.1c0.9,0,1,0.9,1,1.1c-0.5,5.9-0.5,15-0.5,18.9
		c0.1,2.3-1.1,4.5-3.1,5.8c-0.2,0.1-0.3,0.3-0.3,0.6c0.1,3.6,0.4,7.6,0.7,10.5c0,0.2,0.2,0.3,0.4,0.4c1.5,0,4.5,0,6.3,0
		c3,0,4.1,0,6.3,0c0.2,0,0.4-0.2,0.4-0.4c0.6-5.2,0.8-8.9,0.8-9.3c0-0.4-0.4-0.4-0.4-0.4c-0.7-0.1-2.3-0.3-3.6-0.5s-1.4-1.8-1.4-1.8
		C59.6,61.1,68.1,51,68.1,51s0.8-1.1,2-0.7c1,0.4,1.3,3.4,1.3,3.6c1.1,13.4-0.1,29-0.9,35.4c0,0.3,0.1,0.5,0.3,0.5
		c0.3,0,5.4,0.2,5.9,0.2c0.8-0.1,1.5-0.7,1.6-1.5C80.2,75.9,80,63.3,80,63.3c0-0.4,0.4-0.8,0.8-0.8l4.9-0.5c0.6-0.1,1.2-0.4,1.5-0.9
		C87.5,60.4,87.5,59.7,87.1,59.1"/>
	<g>
		<g>
			<path class="st1" d="M113.2,50.6h-7.7c-2.5,0-2.5,0-3,2.9c-0.5,2.9-0.5,3,1.8,3h4.6l-2.6,14.9c-0.6,3.3-2.1,5.6-6.6,7
				c-1.1,0.3-1.5,0.7-1.5,1.3c0,0.6,0.2,1.1,0.7,2.4c0.7,1.8,1.1,2.1,1.8,2.1c0.6,0,1.8-0.3,2.2-0.4c6.4-2.1,9-7,10-12.8l2.9-16.8
				C116.3,50.6,116.3,50.6,113.2,50.6"/>
			<path class="st1" d="M139.4,50.6c-3.1,0-3.1,0-3.6,2.6l-2.3,13.6c-0.6,4-1.7,6.3-5.5,6.3c-3.8,0-5.1-2.3-4.5-5.9l2.2-13
				c0.6-3.7,0.5-3.7-2.7-3.7c-3.1,0-3.2,0-3.7,2.5l-2.3,13.6c-1.4,7.7,3.4,12.5,10.2,12.5c7.6,0,11.5-3.4,12.7-11.6l2.3-13.5
				C142.9,50.6,142.7,50.6,139.4,50.6"/>
			<path class="st1" d="M153.7,72.8c2.5-0.1,3.9-1.3,3.9-2.4c0-1.5-1.8-2-4.2-2.7c-4.7-1.5-9-3.1-9-8.1c0-6,4.9-9.2,11.1-9.2
				c2.6,0,5.5,0.1,7.4,0.3c1.7,0.2,2.1,0.7,1.6,3.3c-0.5,2.6-1.1,2.8-2.6,2.7c-1.8-0.1-4.1-0.3-6.8-0.3c-3.1,0-4.1,1.1-4.1,2.2
				c0,1.4,1.3,2.1,4.2,2.9c5.4,1.6,9,3.8,9,8.5c0,5.5-4.1,8.8-10.7,9c-3.6,0.1-6.7-0.1-9.4-0.5c-2.1-0.3-2.2-0.3-1.7-3.3
				c0.5-2.7,0.5-2.9,2.5-2.7C148.8,72.8,151.2,72.9,153.7,72.8"/>
			<path class="st1" d="M187.9,50.6h-17.7c-2.5,0-2.5,0-3,3c-0.5,3-0.4,3,1.8,3h5.7l-3.2,18.7c-0.6,3.7-0.5,3.7,2.7,3.7
				c3,0,3.1,0,3.6-2.6l3.3-19.7h5.5c2.5,0,2.5,0,3-3C190.2,50.6,190.2,50.6,187.9,50.6"/>
			<path class="st1" d="M219,56.5c2.5,0,2.5,0,3-3s0.5-3-1.8-3h-12.6c-4.5,0-4.4,0-5.1,4.5l-3.2,18.9c-0.8,4.9-0.7,4.9,3.8,4.9h12.3
				c2.6,0,2.5,0,3-2.9c0.5-3,0.5-3-1.8-3H206l0.8-5.4h8.9c2.4,0,2.4,0,2.8-2.8c0.4-2.9,0.4-2.9-2.8-2.9h-7.8l0.8-5.1L219,56.5z"/>
			<path class="st1" d="M232.4,66.5l4.1-9c0.3-0.7,0.3-0.7,0.8-0.7c0.5,0,0.5,0,0.6,0.8l1.3,8.9H232.4z M243.5,54
				c-0.6-3.6-0.6-3.6-5.6-3.6c-4.7,0-4.6,0-6.1,2.9l-10.6,22c-1.6,3.1-1.3,3.4,2.6,3.4c3,0,3,0,4.3-2.8l1.7-3.8H240l0.5,3.8
				c0.4,2.8,0.5,2.8,3.6,2.8c3.4,0,3.8-0.2,3.1-3.7L243.5,54z"/>
			<path class="st1" d="M268.4,50.6h-17.8c-2.5,0-2.5,0-3,3c-0.5,3-0.4,3,1.8,3h5.7l-3.2,18.7c-0.6,3.7-0.5,3.7,2.7,3.7
				c3,0,3.1,0,3.6-2.6l3.3-19.7h5.5c2.5,0,2.5,0,3-3C270.7,50.6,270.7,50.6,268.4,50.6"/>
		</g>
		<g>
			<path class="st1" d="M290.8,56.5h-6.7c-0.5,0-0.9-0.4-0.9-0.9v-4c0-0.5,0.4-0.9,0.9-0.9h21c0.5,0,0.9,0.4,0.9,0.9v4
				c0,0.5-0.4,0.9-0.9,0.9h-6.7c-0.2,0-0.4,0.2-0.4,0.4v20.8c0,0.5-0.4,0.9-0.9,0.9h-5c-0.5,0-0.9-0.4-0.9-0.9V56.9
				C291.2,56.7,291,56.5,290.8,56.5z"/>
			<path class="st1" d="M301.6,72.6c0-3.9,2.9-6,8.8-6.3l5.3-0.3v-0.1c0-2.5-1.8-3.5-4.2-3.5c-1.7,0-3.3,0.5-4.3,1.3
				c-0.2,0.2-0.5,0.2-0.7,0c-0.7-0.7-2.1-2-2.9-2.8c-0.3-0.3-0.4-0.9,0-1.2c1.7-1.6,4.7-2.9,8.5-2.9c6.3,0,9.9,3.5,9.9,8.7v12.1
				c0,0.5-0.4,0.9-0.9,0.9H317c-0.5,0-0.9-0.4-0.9-0.9v-1.2H316c-1.3,1.7-3.6,2.6-6.3,2.6C305.1,79.1,301.6,76.7,301.6,72.6z
				 M315.7,70.8v-0.1c0-0.2-0.2-0.4-0.5-0.4l-4,0.2c-2.1,0.1-3.3,0.8-3.3,2.1c0,1.5,1.4,2.1,3.1,2.1
				C313.7,74.6,315.7,73.1,315.7,70.8z"/>
			<path class="st1" d="M329.8,78.5h-4.6c-0.5,0-0.9-0.4-0.9-0.9V49.2c0-0.5,0.4-0.9,0.9-0.9h4.6c0.5,0,0.9,0.4,0.9,0.9v15.1
				c0,0.4,0.5,0.6,0.7,0.3l6.6-7c0.2-0.2,0.4-0.3,0.6-0.3h5.4c0.7,0,1.1,0.9,0.6,1.4l-6.9,7.5c-0.1,0.2-0.2,0.4,0,0.5l7.7,10.3
				c0.4,0.6,0,1.4-0.7,1.4h-5.4c-0.3,0-0.5-0.1-0.7-0.3l-4.9-6.4c-0.3-0.4-0.9-0.4-1.3-0.1l-1.4,1.4c-0.2,0.2-0.3,0.4-0.3,0.6v3.9
				C330.7,78.2,330.3,78.5,329.8,78.5z"/>
			<path class="st1" d="M344.2,68c0-5.2,3.2-11.1,10.8-11.1c7.7,0,10.7,5.9,10.7,11.1c0,0.4-0.1,1-0.1,1.4c-0.1,0.4-0.4,0.7-0.8,0.7
				l-13.5,0c-0.3,0-0.5,0.3-0.4,0.6c0.8,1.9,2.8,2.7,4.7,2.7c1.6,0,3.1-0.4,4.1-1.2c0.3-0.3,0.8-0.2,1.1,0.1l2.7,2.6
				c0.3,0.3,0.4,0.9,0,1.2c-1.7,1.6-4.6,2.9-8.1,2.9C347.7,79.1,344.2,73.1,344.2,68z M351.1,65.7h7.8c0.3,0,0.5-0.3,0.4-0.6
				c-0.7-2.1-2.3-3-4.3-3c-2,0-3.7,0.9-4.3,3C350.6,65.5,350.8,65.7,351.1,65.7z"/>
			<path class="st1" d="M387.7,57.4h5.2c0.4,0,0.7,0.2,0.8,0.6l3.9,12.6h0.1l4-12.6c0.1-0.4,0.4-0.6,0.8-0.6h5.3
				c0.4,0,0.7,0.2,0.8,0.6l4,12.6h0.1l3.9-12.6c0.1-0.4,0.4-0.6,0.8-0.6h5.2c0.6,0,1,0.6,0.8,1.1l-7,19.4c-0.1,0.3-0.4,0.6-0.8,0.6
				H410c-0.4,0-0.7-0.2-0.8-0.6l-3.8-10.8c-0.1-0.4-0.7-0.4-0.8,0L401,78c-0.1,0.3-0.4,0.6-0.8,0.6h-5.5c-0.4,0-0.7-0.2-0.8-0.6
				l-7-19.4C386.7,58,387.1,57.4,387.7,57.4z"/>
			<path class="st1" d="M445.1,85.9V82c0-0.5,0.4-0.9,0.9-0.9c0.3,0,0.7,0.1,1,0.1c2.1,0,3-0.7,3.7-2.3c0.1-0.2,0.1-0.5,0-0.7
				L443,58.6c-0.2-0.6,0.2-1.2,0.8-1.2h5.1c0.4,0,0.7,0.2,0.8,0.6l4.6,12.9h0.1L459,58c0.1-0.3,0.4-0.6,0.8-0.6h4.9
				c0.6,0,1,0.6,0.8,1.2l-7.9,20c-2.1,5.3-4.2,8.3-10,8.3c-0.6,0-1.2,0-1.8-0.1C445.4,86.7,445.1,86.3,445.1,85.9z"/>
			<path class="st1" d="M466.9,68c0-5.3,3.3-11.1,10.8-11.1c3,0,5.5,1.1,7.2,2.7c0.4,0.3,0.3,0.9,0,1.2l-1.3,1.3
				c-0.3,0.3-0.8,0.3-1.2,0c-1.3-1.2-3-1.7-4.7-1.7c-4,0-6.9,3.2-6.9,7.6c0,4.4,3,7.6,6.9,7.6c1.8,0,3.4-0.5,4.8-1.7
				c0.3-0.3,0.8-0.3,1.1,0l1.3,1.3c0.4,0.3,0.3,0.9,0,1.2c-1.8,1.6-4.2,2.6-7.2,2.6C470.2,79.1,466.9,73.2,466.9,68z"/>
			<path class="st1" d="M485.9,68c0-5.2,3.5-11.1,11-11.1c7.4,0,11,5.9,11,11.1s-3.5,11.1-11,11.1C489.4,79.1,485.9,73.1,485.9,68z
				 M496.8,75.6c4.1,0,7.1-3.3,7.1-7.7s-3-7.7-7.1-7.7c-4.1,0-7.1,3.3-7.1,7.7S492.7,75.6,496.8,75.6z"/>
			<path class="st1" d="M510.3,57.4h1.9c0.5,0,0.9,0.4,0.9,0.9v1.3h0.1c1.1-1.6,3.3-2.7,6.2-2.7c3,0,5.4,1.1,6.9,3
				c0.2,0.2,0.5,0.2,0.7,0c1.6-2,4.1-3,7.3-3c5.3,0,8.7,3.3,8.7,8.9v11.9c0,0.5-0.4,0.9-0.9,0.9h-2.1c-0.5,0-0.9-0.4-0.9-0.9V66.5
				c0-4-1.9-6.2-5.5-6.2c-3.5,0-5.6,2.2-5.6,6.2v11.2c0,0.5-0.4,0.9-0.9,0.9h-2.1c-0.5,0-0.9-0.4-0.9-0.9V66.5c0-4-1.9-6.2-5.5-6.2
				c-3.5,0-5.6,2.2-5.6,6.2v11.2c0,0.5-0.4,0.9-0.9,0.9h-2.1c-0.5,0-0.9-0.4-0.9-0.9V58.3C509.4,57.8,509.8,57.4,510.3,57.4z"/>
			<path class="st1" d="M366.2,72.6c0-3.9,2.9-6,8.8-6.3l5.3-0.3v-0.1c0-2.5-1.8-3.5-4.2-3.5c-1.7,0-3.3,0.5-4.3,1.3
				c-0.2,0.2-0.5,0.2-0.7,0c-0.7-0.7-2.1-2-2.9-2.8c-0.3-0.3-0.4-0.9,0-1.2c1.7-1.6,4.7-2.9,8.5-2.9c6.3,0,9.9,3.5,9.9,8.7v12.1
				c0,0.5-0.4,0.9-0.9,0.9h-4.2c-0.5,0-0.9-0.4-0.9-0.9v-1.2h-0.1c-1.3,1.7-3.6,2.6-6.3,2.6C369.7,79.1,366.2,76.7,366.2,72.6z
				 M380.3,70.8v-0.1c0-0.2-0.2-0.4-0.5-0.4l-4,0.2c-2.1,0.1-3.3,0.8-3.3,2.1c0,1.5,1.4,2.1,3.1,2.1
				C378.3,74.6,380.3,73.1,380.3,70.8z"/>
			<path class="st1" d="M422.6,72.6c0-3.9,2.9-6,8.8-6.3l5.3-0.3v-0.1c0-2.5-1.8-3.5-4.2-3.5c-1.7,0-3.3,0.5-4.3,1.3
				c-0.2,0.2-0.5,0.2-0.7,0c-0.7-0.7-2.1-2-2.9-2.8c-0.3-0.3-0.4-0.9,0-1.2c1.7-1.6,4.7-2.9,8.5-2.9c6.3,0,9.9,3.5,9.9,8.7v12.1
				c0,0.5-0.4,0.9-0.9,0.9h-4.2c-0.5,0-0.9-0.4-0.9-0.9v-1.2h-0.1c-1.3,1.7-3.6,2.6-6.3,2.6C426.1,79.1,422.6,76.7,422.6,72.6z
				 M436.6,70.8v-0.1c0-0.2-0.2-0.4-0.5-0.4l-4,0.2c-2.1,0.1-3.3,0.8-3.3,2.1c0,1.5,1.4,2.1,3.1,2.1
				C434.7,74.6,436.6,73.1,436.6,70.8z"/>
			<circle class="st1" cx="463.9" cy="76.4" r="2.5"/>
		</g>
	</g>
</g>
<g id="Layer_2" class="st2">
	<path class="st3" d="M46.1,21.3c0-5.2,3.9-8.2,11.9-8.6l7.1-0.3v-0.1c0-3.4-2.5-4.7-5.7-4.7c-2.3,0-4.5,0.7-5.8,1.8
		c-0.3,0.2-0.7,0.2-1,0c-0.9-0.9-2.8-2.7-3.9-3.7c-0.5-0.5-0.5-1.2,0-1.7C51.1,1.6,55.1,0,60.3,0c8.5,0,13.5,4.7,13.5,11.8v16.4
		c0,0.6-0.5,1.2-1.2,1.2h-5.7c-0.6,0-1.2-0.5-1.2-1.2v-1.6h-0.1C63.9,28.8,60.8,30,57,30C50.9,30,46.1,26.9,46.1,21.3z M65.2,18.8
		v-0.2c0-0.3-0.3-0.6-0.6-0.6l-5.4,0.3c-2.9,0.2-4.4,1-4.4,2.8c0,2,1.9,2.8,4.2,2.8C62.5,24,65.2,22,65.2,18.8z"/>
	<path class="st3" d="M0,68.5c0-5.2,3.9-8.2,11.9-8.6l7.1-0.3v-0.1c0-3.4-2.5-4.7-5.7-4.7c-2.3,0-4.5,0.7-5.8,1.8
		c-0.3,0.2-0.7,0.2-1,0c-0.9-0.9-2.8-2.7-3.9-3.7c-0.5-0.5-0.5-1.2,0-1.7C5,48.8,9,47.2,14.2,47.2c8.5,0,13.5,4.7,13.5,11.8v16.4
		c0,0.6-0.5,1.2-1.2,1.2h-5.7c-0.6,0-1.2-0.5-1.2-1.2v-1.6h-0.1c-1.7,2.3-4.8,3.5-8.6,3.5C4.8,77.2,0,74,0,68.5z M19.1,66v-0.2
		c0-0.3-0.3-0.6-0.6-0.6L13,65.6c-2.9,0.2-4.4,1-4.4,2.8c0,2,1.9,2.8,4.2,2.8C16.4,71.2,19.1,69.2,19.1,66z"/>
	<path class="st3" d="M542.8,70.2c0-5.2,3.9-8.2,11.9-8.6l7.1-0.3v-0.1c0-3.4-2.5-4.7-5.7-4.7c-2.3,0-4.5,0.7-5.8,1.8
		c-0.3,0.2-0.7,0.2-1,0c-0.9-0.9-2.8-2.7-3.9-3.7c-0.5-0.5-0.5-1.2,0-1.7c2.4-2.2,6.3-3.9,11.6-3.9c8.5,0,13.5,4.7,13.5,11.8v16.4
		c0,0.6-0.5,1.2-1.2,1.2h-5.7c-0.6,0-1.2-0.5-1.2-1.2v-1.6h-0.1c-1.7,2.3-4.8,3.5-8.6,3.5C547.6,79,542.8,75.8,542.8,70.2z
		 M561.9,67.8v-0.2c0-0.3-0.3-0.6-0.6-0.6l-5.4,0.3c-2.9,0.2-4.4,1-4.4,2.8c0,2,1.9,2.8,4.2,2.8C559.3,73,561.9,71,561.9,67.8z"/>
	<path class="st3" d="M24.7,111.2c0-5.2,3.9-8.2,11.9-8.6l7.1-0.3v-0.1c0-3.4-2.5-4.7-5.7-4.7c-2.3,0-4.5,0.7-5.8,1.8
		c-0.3,0.2-0.7,0.2-1,0c-0.9-0.9-2.8-2.7-3.9-3.7c-0.5-0.5-0.5-1.2,0-1.7c2.4-2.2,6.3-3.9,11.6-3.9c8.5,0,13.5,4.7,13.5,11.8v16.4
		c0,0.6-0.5,1.2-1.2,1.2h-5.7c-0.6,0-1.2-0.5-1.2-1.2v-1.6h-0.1c-1.7,2.3-4.8,3.5-8.6,3.5C29.4,120,24.7,116.8,24.7,111.2z
		 M43.8,108.8v-0.2c0-0.3-0.3-0.6-0.6-0.6l-5.4,0.3c-2.9,0.2-4.4,1-4.4,2.8c0,2,1.9,2.8,4.2,2.8C41.1,114,43.8,112,43.8,108.8z"/>
</g>
</svg>
